<?xml version="1.0" standalone="no"?>
<!DOCTYPE svg PUBLIC "-//W3C//DTD SVG 20010904//EN"
 "http://www.w3.org/TR/2001/REC-SVG-20010904/DTD/svg10.dtd">
<svg version="1.0" xmlns="http://www.w3.org/2000/svg"
 width="748.000000pt" height="748.000000pt" viewBox="0 0 748.000000 748.000000"
 preserveAspectRatio="xMidYMid meet">
<metadata>
Created by potrace 1.11, written by Peter Selinger 2001-2013
</metadata>
<g transform="translate(0.000000,748.000000) scale(0.100000,-0.100000)"
fill="#000000" stroke="none">
<path d="M4114 7467 c-20 -21 -54 -47 -55 -42 -1 3 -2 9 -3 14 0 5 -4 13 -8
17 -5 4 -8 -18 -8 -49 0 -31 -4 -58 -8 -61 -5 -3 -7 -18 -4 -34 2 -16 -3 -46
-12 -66 -9 -21 -16 -46 -16 -56 0 -10 -7 -23 -15 -30 -9 -7 -14 -19 -11 -27 8
-19 -4 -44 -17 -36 -7 4 -8 -5 -4 -27 6 -28 5 -31 -8 -20 -13 10 -15 9 -15 -9
0 -11 4 -21 9 -21 10 0 -27 -118 -49 -159 -6 -12 -12 -40 -12 -63 0 -31 -5
-42 -19 -45 -15 -4 -19 -15 -19 -44 0 -22 -4 -39 -10 -39 -5 0 -10 -9 -10 -20
0 -23 -20 -70 -31 -70 -4 0 -11 -15 -15 -32 -3 -18 -13 -49 -22 -68 -8 -19
-18 -44 -22 -55 -5 -11 -17 -40 -28 -65 -10 -25 -22 -58 -26 -75 -4 -16 -14
-37 -22 -47 -9 -9 -14 -22 -13 -30 3 -23 -1 -42 -8 -35 -7 8 -34 -40 -32 -57
3 -15 -12 -48 -28 -65 -8 -7 -11 -21 -8 -31 3 -10 0 -22 -7 -27 -14 -9 -38
-69 -38 -96 0 -9 -6 -17 -13 -17 -16 0 -41 -30 -45 -54 -2 -10 -12 -28 -22
-39 -11 -11 -17 -24 -14 -29 3 -4 1 -8 -4 -8 -6 0 -8 -9 -5 -19 3 -14 0 -19
-13 -18 -11 1 -20 -6 -22 -18 -2 -16 -1 -17 7 -5 9 13 11 13 11 -2 0 -10 -4
-18 -10 -18 -5 0 -7 -6 -4 -14 3 -8 1 -17 -5 -21 -6 -3 -11 2 -12 12 0 10 -8
-7 -19 -37 -30 -92 -81 -177 -99 -165 -7 3 -11 -2 -11 -14 0 -12 -7 -21 -15
-21 -15 0 -19 -13 -30 -90 -3 -24 -13 -53 -22 -62 -9 -10 -16 -33 -15 -53 1
-19 -3 -37 -8 -40 -6 -3 -10 0 -10 7 0 9 -4 8 -15 -3 -9 -8 -16 -36 -17 -63
-2 -28 -8 -50 -15 -53 -7 -3 -10 -9 -7 -14 3 -5 0 -9 -6 -9 -6 0 -8 -4 -5 -10
3 -5 1 -10 -4 -10 -6 0 -11 -6 -11 -14 0 -8 -8 -22 -17 -32 -10 -10 -18 -20
-18 -23 -2 -27 -18 -60 -28 -58 -6 1 -11 -6 -9 -15 2 -13 -2 -16 -13 -12 -13
5 -15 2 -9 -19 6 -27 -20 -67 -34 -52 -4 4 -1 10 6 12 6 3 12 12 12 21 -1 15
-2 15 -15 -1 -8 -12 -12 -37 -10 -65 3 -50 -2 -72 -16 -72 -6 0 -5 9 1 20 7
14 7 20 0 20 -5 0 -10 -6 -10 -13 0 -6 -11 -32 -24 -57 -13 -25 -21 -50 -19
-56 2 -5 -10 -23 -27 -40 -16 -16 -30 -37 -30 -46 0 -9 -6 -21 -13 -25 -12 -7
-50 -94 -53 -118 -3 -29 -26 -65 -51 -80 -18 -11 -39 -39 -55 -75 -15 -31 -33
-64 -40 -71 -7 -8 -18 -27 -23 -43 -6 -16 -14 -28 -20 -27 -12 3 -23 -26 -24
-67 -1 -18 -7 -35 -15 -38 -8 -3 -13 -14 -11 -24 2 -12 -1 -17 -10 -14 -8 3
-20 -10 -31 -35 -10 -23 -25 -41 -33 -42 -9 0 -11 -3 -5 -5 6 -2 8 -18 6 -36
-3 -22 -12 -34 -33 -41 -15 -6 -28 -18 -28 -26 -2 -52 -9 -82 -25 -106 -10
-15 -19 -33 -20 -39 -7 -35 -19 -56 -34 -56 -13 0 -14 -2 -3 -9 7 -5 9 -10 3
-12 -5 -2 -19 -22 -30 -44 -17 -32 -21 -36 -22 -17 0 12 -3 22 -7 22 -5 0 -8
-29 -8 -65 0 -65 6 -74 35 -55 13 9 13 11 0 20 -12 8 -11 10 7 10 19 0 21 -4
19 -37 -2 -21 -16 -69 -30 -108 -24 -60 -25 -73 -15 -95 18 -34 60 -80 75 -80
7 0 26 -12 43 -26 27 -22 36 -24 76 -19 25 4 48 11 50 16 3 4 27 11 53 14 71
10 149 34 162 50 7 8 14 27 15 43 1 15 9 41 17 57 14 26 49 114 153 380 13 33
45 119 71 190 25 72 73 204 106 295 131 364 278 788 350 1005 22 66 45 136 53
155 7 19 38 112 68 205 30 94 94 292 142 440 86 264 175 534 313 945 38 113
84 238 101 279 17 40 31 78 31 85 0 6 14 40 31 76 24 50 79 202 79 217 0 9
-97 0 -106 -10z m-257 -749 c-3 -8 -6 -5 -6 6 -1 11 2 17 5 13 3 -3 4 -12 1
-19z m-627 -1565 c-23 -73 -60 -197 -100 -338 -47 -165 -81 -265 -90 -265 -4
0 -6 -8 -3 -19 2 -10 -7 -47 -20 -82 -14 -35 -30 -82 -37 -104 -20 -66 -52
-128 -60 -115 -5 8 -12 6 -25 -6 -21 -22 -60 -30 -49 -12 5 9 4 10 -4 3 -6 -5
-12 -20 -14 -32 -2 -14 -7 -20 -15 -15 -13 8 111 385 164 502 51 111 264 540
268 540 2 0 -5 -26 -15 -57z"/>
<path d="M5376 6649 c-12 -28 -11 -34 6 -53 40 -44 45 -52 64 -93 10 -24 27
-45 37 -49 13 -4 15 -9 8 -18 -8 -9 -3 -22 19 -46 17 -19 30 -41 30 -50 0 -10
9 -29 20 -43 16 -20 17 -27 8 -34 -19 -11 -37 -12 -43 -3 -3 5 -15 7 -28 4
-41 -8 -77 6 -77 29 0 24 -20 62 -20 39 0 -7 -4 -11 -9 -7 -5 3 -13 0 -17 -6
-4 -8 -9 -7 -15 2 -6 10 -9 3 -10 -21 l-1 -35 -13 45 -13 45 -2 -50 c-3 -48
-3 -48 -10 -15 l-6 35 -8 -28 c-9 -28 -1 -340 10 -477 5 -52 9 -69 15 -55 7
18 8 17 8 -7 1 -14 -4 -28 -10 -30 -8 -3 -9 -15 -4 -38 l7 -34 12 30 13 29 12
-24 c10 -19 15 -21 22 -10 5 8 9 10 10 4 0 -5 2 -17 4 -26 2 -12 -4 -14 -26
-11 -27 4 -29 2 -29 -27 0 -19 4 -30 10 -26 6 3 22 -3 36 -14 29 -23 48 -18
41 9 -3 13 0 17 9 13 8 -3 11 -9 8 -14 -3 -5 7 -9 21 -9 20 0 26 -4 21 -16 -3
-8 -2 -12 4 -9 6 3 10 -3 10 -14 0 -12 5 -21 10 -21 17 0 11 -38 -7 -43 -13
-3 -11 -5 6 -6 13 0 34 -11 46 -23 58 -58 75 -65 94 -39 11 14 23 20 34 15 25
-9 21 -33 -8 -40 -13 -3 -29 -12 -36 -20 -27 -33 -88 3 -89 54 0 25 -3 26 -31
12 -26 -15 -24 -28 6 -36 14 -3 25 -13 25 -21 0 -7 8 -23 19 -34 17 -19 23
-19 85 -8 36 6 72 9 79 6 7 -3 24 1 38 9 31 17 39 17 39 1 0 -7 -9 -13 -21
-14 -33 -3 -50 -23 -47 -56 3 -30 4 -30 61 -31 43 -1 56 2 52 12 -3 10 4 12
28 10 18 -2 31 -8 30 -15 -3 -14 27 -6 40 11 6 8 10 7 14 -2 2 -6 10 -10 16
-6 7 3 1 -4 -12 -15 -13 -12 -19 -21 -15 -21 5 0 2 -4 -6 -9 -8 -6 -27 -7 -42
-4 -24 5 -28 2 -28 -16 0 -23 -1 -23 50 -27 22 -1 42 4 53 14 12 11 32 15 61
13 41 -2 45 0 60 31 16 31 16 33 -1 45 -9 7 -20 13 -25 13 -4 0 -8 7 -8 15 0
8 9 15 19 15 29 0 31 22 5 55 -13 17 -24 36 -24 43 0 22 -20 12 -20 -10 -1
-23 -1 -23 -15 -3 -14 17 -13 20 10 34 29 18 31 37 10 105 -8 27 -15 67 -15
89 0 22 -4 56 -9 76 -5 20 -15 63 -21 96 -12 61 -63 183 -90 216 -8 10 -44 54
-79 98 -35 45 -68 81 -73 81 -5 0 -7 4 -4 8 3 5 -5 15 -17 23 -12 8 -44 35
-70 62 -26 26 -54 47 -62 47 -8 0 -15 5 -15 10 0 6 5 10 11 10 5 0 8 4 4 10
-3 5 -12 7 -20 4 -9 -4 -12 0 -8 14 3 13 -4 26 -21 39 -14 11 -23 23 -20 26 9
9 -15 74 -32 88 -12 10 -13 9 -9 -4 4 -8 2 -18 -4 -22 -7 -4 -11 4 -11 19 0
14 -9 31 -22 40 -12 9 -19 16 -15 16 5 0 1 7 -7 16 -18 17 -21 55 -6 70 6 6
-1 11 -21 12 -25 2 -32 -3 -43 -29z m-29 -431 c-3 -7 -5 -2 -5 12 0 14 2 19 5
13 2 -7 2 -19 0 -25z m283 -706 c0 -4 -5 -13 -12 -20 -18 -18 -28 -15 -28 8 0
13 7 20 20 20 11 0 20 -4 20 -8z m130 -78 c0 -8 -5 -12 -10 -9 -6 4 -8 11 -5
16 9 14 15 11 15 -7z m284 -183 c-8 -8 -53 42 -47 52 3 5 16 -4 28 -19 13 -16
21 -31 19 -33z m-279 40 c3 -5 1 -12 -5 -16 -5 -3 -10 1 -10 9 0 18 6 21 15 7z"/>
<path d="M7440 6620 c0 -5 5 -10 11 -10 5 0 7 5 4 10 -3 6 -8 10 -11 10 -2 0
-4 -4 -4 -10z"/>
<path d="M5639 6588 c-1 -13 -1 -29 0 -35 1 -7 -3 -22 -9 -33 -15 -28 2 -25
31 6 16 18 20 28 12 31 -7 3 -13 13 -13 23 0 28 -20 35 -21 8z"/>
<path d="M7410 6590 c-9 -6 -10 -10 -3 -10 6 0 15 5 18 10 8 12 4 12 -15 0z"/>
<path d="M5340 6411 c0 -56 17 -61 18 -6 1 25 -3 45 -8 45 -6 0 -10 -18 -10
-39z"/>
<path d="M5780 6250 c0 -5 5 -10 11 -10 5 0 7 5 4 10 -3 6 -8 10 -11 10 -2 0
-4 -4 -4 -10z"/>
<path d="M5880 6163 c0 -14 19 -38 25 -32 8 8 -5 39 -16 39 -5 0 -9 -3 -9 -7z"/>
<path d="M5985 6045 c20 -89 41 -155 60 -195 13 -25 26 -74 30 -110 4 -36 12
-71 18 -78 5 -7 7 -15 5 -18 -6 -5 22 -102 43 -147 12 -26 15 -27 58 -21 25 3
75 19 110 34 l64 28 -38 12 c-24 8 -33 15 -25 20 9 5 9 9 1 14 -6 4 -15 4 -21
1 -5 -3 -10 -1 -10 4 0 6 -8 11 -19 11 -14 0 -21 -10 -25 -36 -8 -39 -24 -41
-43 -4 -7 13 -22 28 -33 32 -24 9 -22 35 2 30 11 -1 13 5 10 29 -4 25 -1 31
19 37 21 5 19 7 -16 14 -22 5 -46 9 -52 10 -14 1 -18 18 -5 18 4 0 12 12 19
26 11 24 8 32 -37 97 -28 38 -50 75 -50 81 0 11 -56 125 -67 136 -2 3 -2 -9 2
-25z"/>
<path d="M6211 5654 c-11 -25 -8 -45 4 -32 7 7 17 58 12 58 -2 0 -9 -12 -16
-26z"/>
<path d="M5434 5556 c-11 -29 1 -61 24 -64 25 -4 29 10 7 28 -18 15 -19 37 -2
43 7 3 5 6 -6 6 -10 1 -20 -5 -23 -13z"/>
<path d="M5370 5494 c0 -8 5 -12 10 -9 6 4 8 11 5 16 -9 14 -15 11 -15 -7z"/>
<path d="M6280 5449 c-14 -4 -38 -11 -53 -14 -24 -5 -27 -8 -17 -20 10 -12 9
-15 -5 -15 -24 0 -13 -24 13 -28 17 -3 22 2 22 17 0 12 5 21 10 21 6 0 10 -4
10 -8 0 -5 11 -14 25 -20 14 -6 25 -18 25 -27 0 -8 5 -15 10 -15 6 0 10 5 10
12 0 9 3 9 11 1 8 -8 7 -17 -2 -31 -17 -28 -4 -40 20 -18 29 26 58 28 64 4 3
-11 10 -17 15 -14 5 3 18 -4 30 -14 12 -11 24 -20 27 -20 3 0 13 -8 23 -17 11
-10 43 -38 72 -63 29 -25 58 -51 65 -57 8 -7 17 -13 22 -13 4 0 19 -16 33 -34
14 -19 26 -33 28 -31 14 13 -116 177 -220 279 -28 27 -30 27 -49 10 -11 -10
-23 -14 -27 -8 -5 5 -27 35 -51 67 -24 31 -47 57 -51 57 -5 0 -14 2 -22 4 -7
2 -24 0 -38 -5z"/>
<path d="M5425 5390 c3 -5 13 -10 21 -10 8 0 14 5 14 10 0 6 -9 10 -21 10 -11
0 -17 -4 -14 -10z"/>
<path d="M5500 5300 c0 -5 9 -10 20 -10 11 0 20 5 20 10 0 6 -9 10 -20 10 -11
0 -20 -4 -20 -10z"/>
<path d="M6145 5250 c3 -5 13 -10 21 -10 8 0 12 5 9 10 -3 6 -13 10 -21 10 -8
0 -12 -4 -9 -10z"/>
<path d="M5480 5230 c0 -5 7 -10 15 -10 8 0 15 5 15 10 0 6 -7 10 -15 10 -8 0
-15 -4 -15 -10z"/>
<path d="M5565 5220 c-3 -5 3 -14 14 -19 26 -15 31 -14 25 3 -7 18 -32 28 -39
16z"/>
<path d="M5805 5180 c-3 -11 -2 -27 3 -36 8 -15 12 -14 27 9 9 14 14 31 10 37
-10 17 -33 11 -40 -10z"/>
<path d="M6102 5149 c2 -7 10 -15 17 -17 8 -3 12 1 9 9 -2 7 -10 15 -17 17 -8
3 -12 -1 -9 -9z"/>
<path d="M5726 5141 c-3 -5 0 -14 8 -20 11 -9 15 -8 20 5 3 8 6 18 6 20 0 8
-29 4 -34 -5z"/>
<path d="M6076 5125 c-4 -12 -10 -13 -24 -6 -21 11 -52 -3 -52 -24 0 -8 -7
-15 -16 -15 -8 0 -12 5 -9 10 3 6 1 10 -4 10 -6 0 -11 -2 -11 -4 0 -2 -3 -12
-6 -21 -6 -14 0 -16 35 -12 22 2 44 6 48 10 13 13 32 7 38 -13 12 -38 31 -22
30 27 0 46 -17 68 -29 38z"/>
<path d="M5640 5110 c0 -5 5 -10 10 -10 6 0 10 5 10 10 0 6 -4 10 -10 10 -5 0
-10 -4 -10 -10z"/>
<path d="M5880 5064 c0 -8 5 -12 10 -9 6 4 8 11 5 16 -9 14 -15 11 -15 -7z"/>
<path d="M5714 5009 c-10 -17 13 -36 27 -22 12 12 4 33 -11 33 -5 0 -12 -5
-16 -11z"/>
<path d="M6120 5010 c0 -5 7 -10 15 -10 8 0 15 5 15 10 0 6 -7 10 -15 10 -8 0
-15 -4 -15 -10z"/>
<path d="M5630 5000 c-13 -8 -13 -11 2 -27 23 -22 44 -5 26 20 -9 12 -17 14
-28 7z"/>
<path d="M6017 4985 c-8 -18 11 -31 25 -17 11 11 3 32 -12 32 -4 0 -10 -7 -13
-15z"/>
<path d="M6072 4978 c6 -18 28 -21 28 -4 0 9 -7 16 -16 16 -9 0 -14 -5 -12
-12z"/>
<path d="M5560 4955 c0 -8 7 -15 15 -15 8 0 15 7 15 15 0 8 -7 15 -15 15 -8 0
-15 -7 -15 -15z"/>
<path d="M5870 4934 c0 -8 5 -12 10 -9 6 3 10 10 10 16 0 5 -4 9 -10 9 -5 0
-10 -7 -10 -16z"/>
<path d="M5782 4924 c3 -19 34 -41 43 -32 4 3 2 16 -5 27 -13 25 -43 28 -38 5z"/>
<path d="M6135 4900 c-3 -5 1 -10 9 -10 9 0 16 5 16 10 0 6 -4 10 -9 10 -6 0
-13 -4 -16 -10z"/>
<path d="M5720 4879 c0 -11 27 -12 34 -1 2 4 -4 9 -15 9 -10 1 -19 -2 -19 -8z"/>
<path d="M6025 4870 c3 -5 11 -10 16 -10 6 0 7 5 4 10 -3 6 -11 10 -16 10 -6
0 -7 -4 -4 -10z"/>
<path d="M5636 4856 c3 -9 11 -16 16 -16 13 0 5 23 -10 28 -7 2 -10 -2 -6 -12z"/>
<path d="M5930 4845 c0 -10 7 -15 18 -13 21 4 19 22 -2 26 -10 2 -16 -3 -16
-13z"/>
<path d="M5550 4830 c0 -5 5 -10 10 -10 6 0 10 5 10 10 0 6 -4 10 -10 10 -5 0
-10 -4 -10 -10z"/>
<path d="M5470 4800 c0 -5 5 -10 10 -10 6 0 10 5 10 10 0 6 -4 10 -10 10 -5 0
-10 -4 -10 -10z"/>
<path d="M5792 4789 c2 -7 10 -15 17 -17 8 -3 12 1 9 9 -2 7 -10 15 -17 17 -8
3 -12 -1 -9 -9z"/>
<path d="M5540 4700 c0 -5 5 -10 10 -10 6 0 10 5 10 10 0 6 -4 10 -10 10 -5 0
-10 -4 -10 -10z"/>
<path d="M5465 4660 c3 -5 8 -10 11 -10 2 0 4 5 4 10 0 6 -5 10 -11 10 -5 0
-7 -4 -4 -10z"/>
<path d="M5710 4626 c0 -9 5 -16 10 -16 6 0 10 4 10 9 0 6 -4 13 -10 16 -5 3
-10 -1 -10 -9z"/>
<path d="M5617 4604 c-10 -11 3 -24 24 -24 23 0 25 15 3 24 -19 7 -19 7 -27 0z"/>
<path d="M5545 4560 c3 -5 8 -10 11 -10 2 0 4 5 4 10 0 6 -5 10 -11 10 -5 0
-7 -4 -4 -10z"/>
<path d="M5865 4550 c3 -5 8 -10 11 -10 2 0 4 5 4 10 0 6 -5 10 -11 10 -5 0
-7 -4 -4 -10z"/>
<path d="M5780 4527 c0 -18 28 -42 37 -33 9 8 -9 38 -25 44 -7 2 -12 -3 -12
-11z"/>
<path d="M5700 4490 c0 -5 5 -10 10 -10 6 0 10 5 10 10 0 6 -4 10 -10 10 -5 0
-10 -4 -10 -10z"/>
<path d="M5603 4464 c-6 -16 12 -34 35 -34 15 0 16 22 0 38 -16 16 -27 15 -35
-4z"/>
<path d="M5940 4446 c0 -10 9 -16 21 -16 24 0 21 23 -4 28 -10 2 -17 -3 -17
-12z"/>
<path d="M5530 4437 c0 -19 16 -31 24 -18 3 5 -1 14 -9 21 -12 10 -15 10 -15
-3z"/>
<path d="M5862 4418 c3 -7 13 -15 22 -16 12 -3 17 1 14 10 -3 7 -13 15 -22 16
-12 3 -17 -1 -14 -10z"/>
<path d="M5430 4390 c0 -12 6 -17 18 -15 9 2 21 4 27 4 13 1 -12 24 -30 27 -9
1 -15 -5 -15 -16z"/>
<path d="M5782 4384 c2 -11 11 -20 22 -22 13 -3 17 1 14 14 -2 11 -11 20 -22
22 -13 3 -17 -1 -14 -14z"/>
<path d="M5675 4370 c-3 -5 5 -20 17 -32 21 -21 23 -21 26 -5 7 37 -25 66 -43
37z"/>
<path d="M5585 4337 c0 -34 27 -59 45 -41 14 14 4 39 -24 57 -21 14 -22 13
-21 -16z"/>
<path d="M5357 4341 c3 -12 10 -21 15 -21 13 0 6 32 -9 37 -7 3 -9 -3 -6 -16z"/>
<path d="M5940 4316 c0 -9 7 -16 16 -16 9 0 14 5 12 12 -6 18 -28 21 -28 4z"/>
<path d="M5497 4308 c4 -7 8 -22 8 -33 0 -13 7 -20 20 -20 23 0 32 30 15 50
-16 19 -55 21 -43 3z"/>
<path d="M5862 4287 c-13 -15 1 -42 17 -33 13 9 15 33 2 40 -5 3 -13 0 -19 -7z"/>
<path d="M5416 4272 c-4 -7 -11 -10 -15 -8 -4 3 -8 -1 -8 -9 0 -8 4 -12 8 -9
4 2 12 -4 18 -13 6 -10 11 -14 11 -9 0 6 6 2 13 -7 7 -10 17 -13 24 -9 18 11
4 52 -17 52 -10 0 -20 5 -22 12 -3 9 -6 9 -12 0z"/>
<path d="M5769 4279 c-5 -22 -4 -50 1 -58 9 -16 51 -1 48 17 -3 13 -47 50 -49
41z"/>
<path d="M5660 4229 c0 -24 22 -49 45 -49 32 0 41 17 19 41 -18 20 -64 26 -64
8z"/>
<path d="M5577 4218 c-3 -9 -19 -19 -36 -23 -17 -4 -31 -11 -31 -15 0 -5 -6
-7 -14 -4 -25 9 -23 -30 2 -53 30 -29 40 -29 48 2 4 14 9 24 13 23 3 -2 18
-10 34 -17 17 -9 27 -22 27 -36 0 -30 -49 -42 -67 -17 -12 14 -13 14 -14 -4
-1 -10 -1 -25 0 -31 1 -7 -7 -13 -18 -13 -11 0 -22 -6 -25 -12 -3 -7 -4 -1 -2
15 2 16 -1 27 -9 27 -12 0 -55 53 -55 69 0 5 6 12 13 14 9 4 8 8 -3 16 -12 8
-16 6 -18 -12 -4 -28 -41 -55 -52 -37 -10 17 -16 -4 -19 -68 -2 -51 14 -122
28 -122 12 0 71 -89 71 -107 0 -13 -3 -13 -15 -3 -10 9 -15 9 -15 1 0 -6 -11
-11 -24 -11 -16 0 -26 -7 -31 -22 -7 -22 -8 -22 -15 7 -9 36 -12 22 -15 -80
-5 -170 -16 -425 -20 -480 -14 -164 -17 -360 -16 -874 1 -232 2 -253 16 -235
15 18 16 17 10 -13 -7 -36 7 -45 24 -16 17 30 31 -55 25 -147 -6 -92 1 -144
17 -119 6 10 9 5 9 -18 0 -17 5 -44 10 -59 6 -14 11 -49 12 -76 0 -27 3 -46 6
-43 3 3 14 -13 24 -35 11 -22 23 -38 28 -35 13 8 30 -63 26 -109 -3 -32 2 -44
25 -67 15 -15 29 -33 30 -41 4 -21 -34 -132 -48 -141 -7 -4 -13 -13 -13 -19 0
-22 -35 -87 -47 -88 -16 0 -17 -40 -2 -40 5 0 7 -5 4 -10 -4 -6 -10 -8 -15 -5
-9 6 -30 -25 -30 -44 0 -27 31 -7 50 32 11 23 31 60 44 82 14 22 39 66 55 99
17 32 34 63 39 70 16 21 0 102 -18 91 -6 -4 -7 2 -2 16 5 12 5 42 1 68 -4 25
-4 49 0 54 4 4 4 30 1 57 -4 35 -3 47 4 40 5 -5 15 -10 21 -10 5 0 4 4 -4 9
-12 8 -12 12 -2 25 20 24 41 -4 42 -56 1 -24 5 -2 9 47 8 92 -1 129 -24 104
-8 -8 -8 -13 2 -16 12 -5 18 -43 6 -43 -12 0 -33 34 -34 53 0 9 -4 17 -10 17
-5 0 -10 9 -10 20 0 11 7 20 15 20 8 0 15 -5 15 -11 0 -5 5 -7 11 -3 6 3 16 0
21 -7 7 -10 8 -9 3 6 -13 36 -11 93 3 88 16 -7 15 8 -3 43 -8 16 -14 43 -14
59 l1 30 9 -30 c7 -26 8 -25 4 10 -3 22 -5 47 -5 55 0 13 -1 13 -11 0 -7 -11
-9 -4 -4 25 10 70 16 118 23 185 6 53 11 66 29 76 24 11 21 26 -3 17 -15 -6
-20 27 -6 41 4 4 7 31 7 59 0 33 5 52 14 55 10 3 12 -3 7 -26 -5 -21 -3 -31 8
-35 10 -4 13 -15 10 -31 -4 -22 -1 -26 18 -26 16 0 19 3 11 11 -14 14 -5 49
12 49 8 0 21 3 29 6 12 5 15 2 10 -10 -3 -9 -10 -13 -15 -10 -5 3 -9 -2 -9
-11 0 -9 5 -13 10 -10 6 3 10 0 10 -8 0 -15 -29 -27 -67 -27 -31 0 -29 -16 5
-33 15 -7 43 -23 62 -34 62 -35 77 -34 35 2 -22 19 -47 35 -55 35 -23 0 1 15
49 30 41 13 52 12 150 -14 123 -33 135 -35 137 -21 0 6 4 18 9 28 4 10 5 37 3
61 -3 24 -2 64 2 90 5 35 4 46 -7 46 -16 0 -18 17 -2 22 10 3 13 145 5 228 -3
32 -16 61 -25 55 -4 -2 -15 14 -25 35 -10 23 -25 40 -34 41 -9 0 -12 3 -5 5
15 7 -64 141 -98 166 -14 11 -43 23 -65 28 -46 11 -67 -4 -70 -48 -1 -15 -7
-26 -13 -24 -7 1 -11 -9 -9 -25 2 -37 -9 -70 -27 -77 -18 -6 -18 -2 -6 42 11
36 9 39 -14 16 -15 -16 -18 -16 -33 0 -13 13 -17 35 -17 94 0 105 14 288 26
336 13 48 5 70 -21 63 -16 -4 -20 0 -20 23 0 15 6 33 14 39 7 6 21 33 31 59
10 26 23 52 30 57 6 6 12 25 13 44 1 45 7 48 26 14 13 -24 15 -25 17 -8 1 11
1 34 0 51 -2 21 3 33 13 37 10 4 16 18 16 37 0 18 4 29 10 25 14 -9 13 1 -5
35 -9 18 -11 31 -5 35 6 3 10 12 10 18 0 8 -3 7 -9 -2 -7 -11 -11 -9 -21 9
-12 22 -11 23 27 17 42 -7 55 -3 47 17 -3 7 -21 11 -44 10 -46 -2 -56 13 -35
53 19 36 19 49 0 57 -8 3 -15 13 -15 22 0 13 -3 14 -15 4 -8 -7 -12 -17 -8
-22 3 -6 0 -8 -8 -6 -8 3 -22 -1 -31 -9 -15 -14 -20 -12 -43 11 -14 14 -23 31
-20 37 9 14 -14 39 -37 39 -10 0 -22 10 -27 22 -6 17 -9 18 -14 6z m-206 -161
c-8 -8 -11 -7 -11 4 0 20 13 34 18 19 3 -7 -1 -17 -7 -23z m399 -21 c-4 -19
-5 -37 -2 -40 3 -4 -2 -6 -11 -6 -20 0 -24 59 -5 78 18 18 26 5 18 -32z m-342
16 c2 -7 -3 -12 -12 -12 -9 0 -16 7 -16 16 0 17 22 14 28 -4z m232 -2 c0 -5
-2 -10 -4 -10 -3 0 -8 5 -11 10 -3 6 -1 10 4 10 6 0 11 -4 11 -10z m-205 -41
c11 -16 1 -19 -13 -3 -7 8 -8 14 -3 14 5 0 13 -5 16 -11z m247 -13 c-2 -9 4
-16 13 -16 8 0 15 -4 15 -10 0 -17 -16 -13 -69 17 -2 2 2 10 9 18 16 19 36 14
32 -9z m65 -111 c0 -8 -4 -15 -8 -15 -11 0 -20 16 -12 24 11 11 20 7 20 -9z
m-347 -147 c0 -7 -5 -20 -10 -28 -8 -12 -10 -9 -10 13 0 15 5 27 10 27 6 0 10
-6 10 -12z m24 -4 c3 -8 2 -12 -4 -9 -6 3 -10 10 -10 16 0 14 7 11 14 -7z
m-82 -76 c-9 -9 -12 -7 -12 12 0 19 3 21 12 12 9 -9 9 -15 0 -24z m125 -623
c-3 -19 -2 -37 3 -40 9 -6 19 -75 10 -75 -11 0 -29 94 -23 123 8 40 17 33 10
-8z m173 -66 c0 -16 -4 -29 -9 -29 -12 0 -21 25 -21 57 0 21 2 24 15 13 8 -7
15 -25 15 -41z m40 -50 c0 -39 -17 -29 -18 11 0 17 4 28 9 25 5 -4 9 -20 9
-36z m-243 -71 c-3 -8 -6 -5 -6 6 -1 11 2 17 5 13 3 -3 4 -12 1 -19z m279 -86
c7 -19 12 -37 10 -41 -2 -3 0 -32 4 -63 9 -60 4 -98 -11 -98 -5 0 -9 15 -8 33
3 92 -15 207 -32 207 -5 0 -9 5 -9 11 0 20 30 -12 46 -49z m-288 -52 l-5 -30
54 0 53 0 0 -80 0 -80 -32 -1 c-41 -1 -81 2 -90 7 -3 2 -2 19 4 37 12 41 12
40 3 115 -5 46 -4 62 5 62 8 0 11 -11 8 -30z m319 -152 c-3 -8 -6 -5 -6 6 -1
11 2 17 5 13 3 -3 4 -12 1 -19z m29 -34 c-3 -8 -13 -14 -23 -13 -11 0 -13 3
-5 6 6 2 12 17 12 31 1 24 2 25 11 9 6 -10 8 -25 5 -33z m-89 14 c-3 -8 -6 -5
-6 6 -1 11 2 17 5 13 3 -3 4 -12 1 -19z m-87 -3 c0 -8 -4 -15 -10 -15 -5 0 -7
7 -4 15 4 8 8 15 10 15 2 0 4 -7 4 -15z m-180 -45 c0 -5 -4 -10 -10 -10 -5 0
-10 5 -10 10 0 6 5 10 10 10 6 0 10 -4 10 -10z m183 -3 c-2 -4 -5 -7 -8 -7 -3
0 -9 0 -15 0 -5 0 -10 4 -10 9 0 5 8 8 18 7 9 -2 16 -6 15 -9z m-266 -369 c-3
-8 -6 -5 -6 6 -1 11 2 17 5 13 3 -3 4 -12 1 -19z m103 -168 c0 -5 -2 -10 -4
-10 -3 0 -8 5 -11 10 -3 6 -1 10 4 10 6 0 11 -4 11 -10z m45 -70 c3 -6 -1 -7
-9 -4 -18 7 -21 14 -7 14 6 0 13 -4 16 -10z"/>
<path d="M5350 4200 c0 -19 11 -26 23 -14 8 8 -3 34 -14 34 -5 0 -9 -9 -9 -20z"/>
<path d="M5930 4175 c0 -26 22 -33 48 -16 14 9 2 22 -30 34 -14 5 -18 1 -18
-18z"/>
<path d="M5810 4164 c0 -8 8 -18 18 -21 9 -4 23 -13 31 -20 7 -8 18 -12 25
-10 17 6 20 37 3 37 -9 0 -17 5 -19 11 -6 18 -58 21 -58 3z"/>
<path d="M5380 4129 c0 -5 5 -7 10 -4 6 3 10 8 10 11 0 2 -4 4 -10 4 -5 0 -10
-5 -10 -11z"/>
<path d="M6744 4125 c-9 -22 1 -29 15 -11 8 10 9 16 1 21 -5 3 -13 -1 -16 -10z"/>
<path d="M5860 4047 c0 -19 16 -31 24 -18 3 5 -1 14 -9 21 -12 10 -15 10 -15
-3z"/>
<path d="M6578 4013 c7 -3 16 -2 19 1 4 3 -2 6 -13 5 -11 0 -14 -3 -6 -6z"/>
<path d="M5770 3649 c0 -5 5 -7 10 -4 6 3 10 8 10 11 0 2 -4 4 -10 4 -5 0 -10
-5 -10 -11z"/>
<path d="M2260 3569 c0 -5 5 -7 10 -4 6 3 10 8 10 11 0 2 -4 4 -10 4 -5 0 -10
-5 -10 -11z"/>
<path d="M5728 3568 c-7 -18 2 -39 13 -32 12 7 12 44 0 44 -5 0 -11 -6 -13
-12z"/>
<path d="M2177 3431 c4 -29 3 -42 -4 -38 -6 4 -13 -2 -16 -12 -3 -14 -1 -18 9
-14 8 3 14 0 14 -5 0 -6 -17 -13 -37 -15 l-38 -4 41 -1 c40 -2 42 -1 47 33 4
21 0 49 -8 68 l-15 32 7 -44z"/>
<path d="M2147 3423 c-4 -3 -7 -13 -7 -22 1 -13 3 -13 11 2 11 19 8 33 -4 20z"/>
<path d="M6629 2697 c-19 -8 -46 -21 -58 -29 l-23 -16 23 -4 c57 -8 19 -72
-50 -84 -53 -9 -62 -14 -16 -11 22 2 49 8 60 12 18 8 19 7 6 -8 -12 -15 -11
-17 3 -17 9 0 26 9 38 20 12 11 31 20 42 20 16 0 17 3 8 12 -10 10 -19 8 -45
-7 -32 -18 -32 -18 -14 2 21 25 22 49 1 61 -19 11 -11 32 12 32 9 0 12 -5 8
-12 -4 -7 6 -2 23 10 17 12 42 22 55 22 17 0 20 -2 9 -9 -12 -8 -12 -12 -2
-25 15 -18 1 -22 -16 -5 -9 9 -18 8 -37 -5 -51 -33 -14 -51 44 -21 23 12 28
21 26 42 -3 23 -8 28 -32 30 -16 2 -45 -3 -65 -10z"/>
<path d="M3453 2488 c-25 -54 -33 -81 -33 -109 0 -42 -22 -89 -63 -129 -19
-19 -55 -76 -81 -127 -46 -92 -46 -93 -41 -175 3 -46 5 -89 5 -95 0 -7 5 -13
11 -13 5 0 9 8 8 18 -1 9 0 28 1 42 1 23 2 23 10 5 4 -11 6 -30 3 -42 -3 -13
0 -23 6 -23 6 0 11 -9 11 -19 0 -11 6 -22 13 -25 6 -3 4 -4 -7 -3 -25 3 -56
-57 -55 -108 0 -35 1 -37 10 -17 5 13 23 38 41 55 l33 32 -19 -29 c-10 -16
-27 -44 -38 -63 -11 -18 -22 -33 -24 -33 -2 0 -10 12 -18 28 -13 24 -15 25
-16 6 0 -12 9 -31 20 -44 14 -16 17 -27 10 -34 -5 -5 -10 -21 -10 -34 0 -13
-4 -20 -10 -17 -5 3 -10 -1 -10 -9 0 -9 -5 -16 -11 -16 -5 0 -7 -4 -4 -10 3
-6 -1 -7 -9 -4 -18 7 -22 -2 -31 -68 -3 -27 -11 -47 -17 -45 -6 1 -14 -9 -18
-23 -7 -25 -17 -15 -19 20 -5 63 -9 79 -23 94 -16 15 -19 13 -44 -34 -15 -27
-34 -50 -43 -50 -8 0 -25 -12 -38 -26 -12 -14 -41 -32 -65 -39 -24 -7 -42 -17
-41 -22 2 -12 -86 -14 -142 -4 -64 12 -73 -1 -24 -33 35 -24 45 -26 66 -17 34
15 87 14 130 -4 45 -19 82 -19 108 1 27 20 90 10 131 -22 18 -13 67 -40 110
-60 44 -20 97 -45 120 -55 47 -22 64 -24 64 -6 0 13 -112 90 -148 102 -31 9
-45 49 -37 110 6 42 14 56 53 93 25 24 52 40 59 37 8 -2 25 6 37 20 24 26 46
33 46 14 0 -14 25 -39 39 -39 19 0 12 22 -9 27 -25 7 -27 33 -2 27 36 -8 72
45 72 109 0 33 -6 49 -25 67 -13 12 -22 27 -18 33 3 6 2 7 -3 4 -6 -3 -16 -2
-24 3 -13 8 -13 11 -1 22 11 10 14 10 18 1 3 -7 9 -13 14 -13 17 0 49 -34 49
-52 0 -10 7 -18 15 -18 8 0 35 -7 60 -16 76 -25 77 -11 5 46 l-25 20 46 -6
c42 -6 47 -4 72 26 38 45 34 113 -10 157 -57 57 -140 86 -151 53 -3 -7 -18
-27 -34 -44 -17 -17 -36 -39 -43 -50 -21 -29 -35 -11 -23 31 13 48 31 74 69
102 37 28 112 31 159 6 42 -22 69 -20 63 4 -3 14 3 23 24 33 24 12 28 19 29
58 1 45 1 45 35 43 30 -3 32 -1 14 9 -26 15 -128 100 -137 114 -4 6 -32 30
-62 53 -66 51 -131 133 -143 180 -11 42 -26 49 -40 19z m-89 -607 c-7 -9 -24
13 -24 32 0 21 1 21 13 -3 8 -14 12 -27 11 -29z m32 -50 c-9 -8 -19 -11 -23
-7 -5 5 -3 11 4 13 7 2 9 12 6 21 -6 15 -5 15 11 3 15 -13 15 -16 2 -30z m9
-51 c3 -5 1 -10 -4 -10 -6 0 -11 5 -11 10 0 6 2 10 4 10 3 0 8 -4 11 -10z m65
0 c0 -5 -4 -10 -10 -10 -5 0 -10 5 -10 10 0 6 5 10 10 10 6 0 10 -4 10 -10z
m-100 -20 c0 -5 -4 -10 -10 -10 -5 0 -10 5 -10 10 0 6 5 10 10 10 6 0 10 -4
10 -10z m60 -15 c0 -9 -6 -12 -16 -8 -13 5 -13 7 -2 14 17 11 18 11 18 -6z
m115 -20 c22 -18 15 -17 -27 5 -16 7 -28 17 -28 22 0 10 25 -3 55 -27z m-242
-60 c-3 -9 -8 -14 -10 -11 -3 3 -2 9 2 15 9 16 15 13 8 -4z m33 -163 c-4 -4
-14 1 -21 12 -8 10 -18 15 -24 11 -6 -3 -11 0 -11 8 0 26 13 27 38 2 14 -14
22 -29 18 -33z m46 -4 c-9 -9 -15 -9 -24 0 -9 9 -7 12 12 12 19 0 21 -3 12
-12z m-317 -89 c11 -17 0 -20 -21 -4 -17 13 -17 14 -2 15 9 0 20 -5 23 -11z
m-15 -23 c0 -11 -19 -15 -25 -6 -3 5 1 10 9 10 9 0 16 -2 16 -4z m-40 -46 c0
-5 -4 -10 -10 -10 -5 0 -10 5 -10 10 0 6 5 10 10 10 6 0 10 -4 10 -10z m-5
-30 c-3 -5 -12 -10 -18 -10 -7 0 -6 4 3 10 19 12 23 12 15 0z m35 -3 c0 -8 -7
-14 -15 -14 -11 0 -12 4 -4 14 6 7 13 13 15 13 2 0 4 -6 4 -13z m-60 -37 c-20
-13 -50 -13 -50 0 0 6 15 10 33 10 24 0 28 -3 17 -10z"/>
<path d="M3901 2401 c-11 -21 -23 -60 -26 -87 l-7 -49 62 -62 c63 -64 69 -86
22 -83 -59 4 -82 0 -82 -15 0 -8 7 -15 15 -15 19 0 19 -14 -1 -56 -20 -42 -9
-59 46 -74 30 -8 37 -14 33 -29 -3 -13 2 -20 19 -24 22 -6 22 -7 3 -22 -12 -9
-14 -13 -4 -10 10 4 21 -6 35 -31 21 -40 54 -53 74 -29 7 9 22 12 38 9 20 -4
38 4 71 31 41 33 43 36 23 42 -22 5 -31 23 -11 23 5 0 8 4 4 9 -3 6 4 15 15
21 21 11 27 36 10 42 -9 3 -17 35 -24 97 -1 13 -16 40 -33 60 -16 20 -33 50
-37 66 -19 78 -19 87 3 115 34 47 24 57 -13 15 l-35 -39 -74 67 c-41 37 -82
67 -91 67 -8 0 -24 -17 -35 -39z"/>
<path d="M6620 2316 c0 -2 7 -7 16 -10 8 -3 12 -2 9 4 -6 10 -25 14 -25 6z"/>
<path d="M6636 2282 c6 -4 13 -15 17 -24 3 -10 20 -26 38 -37 17 -11 36 -30
43 -42 11 -22 20 -25 69 -21 10 1 17 10 17 22 0 10 -8 24 -17 29 -10 6 -13 11
-8 11 11 0 -54 42 -70 44 -5 1 -16 5 -24 10 -10 7 -12 4 -6 -13 4 -12 2 -21
-4 -21 -6 0 -11 4 -11 9 0 14 -29 41 -43 41 -8 0 -9 -3 -1 -8z m114 -43 c0 -4
-7 -6 -15 -3 -8 4 -15 10 -15 15 0 4 7 6 15 3 8 -4 15 -10 15 -15z m20 -19
c-8 -5 -22 -9 -30 -9 -10 0 -8 3 5 9 27 12 43 12 25 0z"/>
<path d="M5682 2148 c4 -11 127 -62 134 -55 2 2 -28 17 -67 35 -39 17 -69 26
-67 20z"/>
<path d="M5340 2024 c0 -21 4 -33 10 -29 6 3 10 19 10 36 0 16 -4 29 -10 29
-5 0 -10 -16 -10 -36z"/>
<path d="M5651 1894 c0 -11 3 -14 6 -6 3 7 2 16 -1 19 -3 4 -6 -2 -5 -13z"/>
<path d="M4336 1865 c4 -8 8 -15 10 -15 2 0 4 7 4 15 0 8 -4 15 -10 15 -5 0
-7 -7 -4 -15z"/>
<path d="M4347 1793 c-3 -31 -1 -51 8 -60 21 -20 26 -16 13 12 -8 19 -8 31 1
51 6 14 9 30 6 35 -13 20 -23 7 -28 -38z"/>
<path d="M3220 1784 c-6 -14 -10 -33 -10 -42 1 -24 39 26 40 51 0 26 -19 21
-30 -9z"/>
<path d="M3170 1684 c0 -8 5 -12 10 -9 6 4 8 11 5 16 -9 14 -15 11 -15 -7z"/>
<path d="M3205 1590 c3 -5 10 -10 16 -10 5 0 9 5 9 10 0 6 -7 10 -16 10 -8 0
-12 -4 -9 -10z"/>
<path d="M4160 1550 c0 -22 -6 -33 -24 -41 -13 -6 -26 -20 -29 -30 -6 -21 17
-44 33 -34 5 3 10 0 10 -7 0 -7 -9 -19 -20 -26 -11 -7 -20 -18 -20 -26 0 -19
-30 -42 -38 -29 -11 17 -35 21 -62 10 -14 -5 -36 -9 -50 -8 -17 1 -33 -8 -47
-26 -22 -27 -25 -28 -130 -28 -121 0 -146 7 -238 70 -75 51 -190 89 -138 46
12 -10 19 -21 16 -25 -4 -3 1 -6 10 -6 10 0 17 -4 17 -9 0 -20 32 -41 55 -35
12 3 26 1 29 -5 4 -6 14 -11 22 -11 9 0 30 -11 47 -24 18 -12 53 -33 78 -45
39 -18 48 -27 52 -54 5 -35 -27 -102 -70 -145 -27 -27 -29 -38 -7 -46 8 -3 13
-10 10 -15 -21 -33 145 -50 170 -17 6 9 24 19 40 22 39 8 78 41 80 67 1 12 5
36 10 52 4 17 7 38 5 48 -1 10 3 16 10 15 8 -2 18 7 23 19 6 12 20 26 33 32
14 6 23 19 23 32 0 16 5 20 20 16 22 -6 48 17 31 28 -14 8 9 53 38 77 15 13
21 30 21 60 0 32 5 46 20 55 18 12 19 14 2 43 -22 38 -32 38 -32 0z"/>
<path d="M3200 1560 c0 -5 5 -10 10 -10 6 0 10 5 10 10 0 6 -4 10 -10 10 -5 0
-10 -4 -10 -10z"/>
<path d="M5481 1524 c0 -11 3 -14 6 -6 3 7 2 16 -1 19 -3 4 -6 -2 -5 -13z"/>
<path d="M5460 1507 c0 -14 5 -29 10 -32 7 -4 8 3 4 22 -9 38 -14 42 -14 10z"/>
<path d="M2180 1484 c0 -10 12 -30 26 -45 23 -24 30 -26 54 -17 16 5 41 8 57
6 23 -2 30 -10 37 -41 7 -29 13 -36 25 -31 9 4 30 6 46 5 l30 -2 -25 18 c-14
9 -31 25 -38 35 -7 10 -22 18 -33 18 -10 0 -19 3 -19 8 0 12 -82 50 -122 57
-32 5 -38 3 -38 -11z"/>
<path d="M3120 1465 c0 -8 5 -15 10 -15 6 0 10 7 10 15 0 8 -4 15 -10 15 -5 0
-10 -7 -10 -15z"/>
<path d="M4030 1426 c0 -2 7 -9 15 -16 9 -7 15 -8 15 -2 0 5 -7 12 -15 16 -8
3 -15 4 -15 2z"/>
<path d="M4092 1405 c-7 -8 -9 -15 -4 -15 5 0 15 7 22 15 16 19 -1 19 -18 0z"/>
<path d="M3298 1364 c-7 -16 -21 -37 -30 -46 -27 -27 -22 -45 24 -78 22 -16
37 -30 32 -30 -5 -1 9 -8 31 -16 44 -16 100 -11 121 11 23 22 26 100 6 118
-28 25 -97 58 -136 64 -32 5 -37 3 -48 -23z"/>
<path d="M2488 1353 c6 -2 18 -2 25 0 6 3 1 5 -13 5 -14 0 -19 -2 -12 -5z"/>
<path d="M2548 1348 c9 -9 15 -9 24 0 9 9 7 12 -12 12 -19 0 -21 -3 -12 -12z"/>
<path d="M2580 1299 c0 -5 5 -7 10 -4 6 3 10 8 10 11 0 2 -4 4 -10 4 -5 0 -10
-5 -10 -11z"/>
<path d="M4073 1266 c0 -8 6 -12 14 -9 7 3 10 9 7 14 -8 14 -21 11 -21 -5z"/>
<path d="M5460 1261 c0 -6 4 -13 10 -16 6 -3 7 1 4 9 -7 18 -14 21 -14 7z"/>
<path d="M5355 1069 c-10 -15 3 -25 16 -12 7 7 7 13 1 17 -6 3 -14 1 -17 -5z"/>
<path d="M5363 913 c-13 -14 -23 -32 -23 -40 0 -7 -7 -13 -15 -13 -20 0 -19
20 3 36 14 10 15 15 4 26 -11 11 -16 10 -26 -4 -7 -10 -16 -15 -19 -12 -3 4
-8 -4 -11 -17 -2 -13 -10 -50 -16 -83 -9 -42 -9 -61 -1 -69 8 -8 11 -1 12 24
1 18 3 26 6 17 4 -15 8 -13 29 11 13 16 24 35 24 42 0 8 12 25 25 38 14 13 23
26 20 29 -3 3 2 14 12 24 9 10 12 18 7 17 -5 0 -19 -12 -31 -26z"/>
<path d="M5248 444 c-5 -4 -8 -16 -8 -28 0 -14 3 -17 11 -9 6 6 9 19 7 28 -1
9 -6 13 -10 9z"/>
<path d="M5251 320 c1 -42 1 -43 9 -16 6 17 5 36 0 45 -7 11 -9 3 -9 -29z"/>
<path d="M5233 305 c0 -27 2 -38 4 -22 2 15 2 37 0 50 -2 12 -4 0 -4 -28z"/>
<path d="M6013 212 c-46 -3 -53 -6 -54 -25 -3 -51 6 -80 19 -61 4 5 52 11 107
13 55 1 104 7 110 12 5 6 4 9 -4 9 -7 0 -11 8 -10 18 3 30 -1 38 -11 22 -8
-13 -10 -12 -10 3 0 14 -4 16 -19 8 -10 -6 -20 -9 -22 -7 -9 8 -58 12 -106 8z
m32 -22 c3 -5 1 -10 -4 -10 -6 0 -11 5 -11 10 0 6 2 10 4 10 3 0 8 -4 11 -10z
m37 -26 c-7 -12 -11 -13 -17 -4 -4 7 -2 16 6 21 18 11 23 4 11 -17z"/>
<path d="M7333 134 c4 -4 2 -13 -4 -20 -7 -8 -7 -14 1 -19 5 -3 10 0 10 9 0 8
5 16 12 18 7 3 4 7 -7 12 -11 4 -16 4 -12 0z"/>
<path d="M7279 115 c-1 -6 -1 -17 0 -27 1 -9 -8 -24 -21 -33 -22 -16 -22 -17
-1 -11 18 6 20 3 16 -14 -6 -21 -3 -23 20 -14 11 4 14 17 11 47 -3 37 -22 75
-25 52z"/>
<path d="M5240 35 c0 -24 5 -35 15 -35 15 0 20 26 9 54 -11 28 -24 17 -24 -19z"/>
<path d="M7241 14 c0 -11 3 -14 6 -6 3 7 2 16 -1 19 -3 4 -6 -2 -5 -13z"/>
<path d="M5280 10 c0 -5 5 -10 10 -10 6 0 10 5 10 10 0 6 -4 10 -10 10 -5 0
-10 -4 -10 -10z"/>
</g>
</svg>
